<svg width="34" height="34" viewBox="0 0 34 34" fill="none" xmlns="http://www.w3.org/2000/svg">
<g clip-path="url(#clip0_122_158)">
<path d="M33.9281 11.1847L30.7327 4.88779V2.39051C30.7327 2.02381 30.4355 1.72644 30.0687 1.72644H3.93113C3.56444 1.72644 3.26707 2.02381 3.26707 2.39051V4.88812L0.0718518 11.1847C0.0246368 11.2778 0 11.3808 0 11.4852V13.1189C0 15.0601 1.41472 16.6761 3.26707 16.9928V30.9452H2.58753C2.22077 30.9452 1.92346 31.2425 1.92346 31.6092C1.92346 31.9759 2.22077 32.2733 2.58753 32.2733H3.92602C3.92768 32.2733 3.92941 32.2736 3.93113 32.2736H22.1H27.4125H30.0688H31.4124C31.7791 32.2736 32.0765 31.9762 32.0765 31.6095C32.0765 31.2428 31.7791 30.9454 31.4124 30.9454H30.7329V16.9928C32.5853 16.6761 34 15.0601 34 13.1189V11.4852C34 11.3808 33.9754 11.2778 33.9281 11.1847ZM4.5952 3.05457H29.4046V4.3829H24.8413H19.6138H14.3863H9.15865H4.5952V3.05457ZM20.9278 11.4181L20.3487 5.71103H24.3494L26.1375 11.584V13.1189C26.1375 14.5542 24.9698 15.7219 23.5344 15.7219C22.099 15.7219 20.9312 14.5542 20.9312 13.1189V11.4852C20.9312 11.4628 20.9301 11.4405 20.9278 11.4181ZM19.6031 11.5188V13.1189H19.603C19.603 14.5542 18.4353 15.7219 17.0001 15.7219C15.5647 15.7219 14.3969 14.5542 14.3969 13.1189V11.5188L14.9864 5.71103H19.0137L19.6031 11.5188ZM13.6515 5.7111L13.0722 11.4182C13.0699 11.4405 13.0687 11.4628 13.0687 11.4852V13.1189C13.0687 14.5542 11.901 15.7219 10.4657 15.7219C9.03029 15.7219 7.8626 14.5542 7.8626 13.1189V11.5841L9.65079 5.7111H13.6515ZM1.32813 13.1189V11.6441L4.33887 5.71103H8.26236L6.56322 11.2918C6.54416 11.3545 6.5344 11.4197 6.5344 11.4852V13.1189C6.5344 14.5542 5.36658 15.7219 3.93113 15.7219C2.49582 15.7219 1.32813 14.5542 1.32813 13.1189ZM26.7485 30.9454H22.764V28.9531V26.2969H23.4282C23.7949 26.2969 24.0922 25.9995 24.0922 25.6328C24.0922 25.2661 23.7949 24.9687 23.4282 24.9687H22.764V20.3204H26.7485V30.9454ZM29.4046 30.9454H28.0765V19.6563C28.0765 19.2896 27.7792 18.9923 27.4124 18.9923H22.0998H6.58746C6.22063 18.9923 5.92339 19.2896 5.92339 19.6563V28.9531C5.92339 29.3199 6.22063 29.6172 6.58746 29.6172H21.4359V30.9454H4.5952V16.9928C5.67723 16.8079 6.6099 16.1802 7.19847 15.3025C7.9045 16.3553 9.10533 17.05 10.4656 17.05C11.8259 17.05 13.0266 16.3553 13.7327 15.3025C14.4388 16.3553 15.6397 17.05 17 17.05C18.3601 17.05 19.561 16.3554 20.267 15.3025C20.9731 16.3554 22.174 17.05 23.5343 17.05C24.8945 17.05 26.0954 16.3553 26.8015 15.3025C27.39 16.1802 28.3226 16.8079 29.4046 16.9928V30.9454ZM13.7282 20.3204H16.0418L14.7791 21.5829C14.5198 21.8422 14.5198 22.2627 14.779 22.522C14.9087 22.6517 15.0787 22.7166 15.2487 22.7166C15.4186 22.7166 15.5885 22.6517 15.7182 22.5221L17.9201 20.3204H21.4358V28.289H7.25152V26.7971L13.7282 20.3204ZM7.25152 24.9188V20.3204H11.8499L7.25152 24.9188ZM32.6719 13.1189C32.6719 14.5542 31.5041 15.7219 30.0688 15.7219C28.6334 15.7219 27.4657 14.5542 27.4657 13.1189V11.4852C27.4657 11.4197 27.456 11.3545 27.4368 11.2918L25.7377 5.71103H29.6611L32.6719 11.6441V13.1189Z" fill="white" stroke="white" stroke-width="0.5"/>
<path d="M13.8885 24.0767C14.0578 24.0767 14.2271 24.0124 14.3567 23.8836L14.3678 23.8726C14.6279 23.6141 14.6291 23.1936 14.3706 22.9335C14.1119 22.6733 13.6914 22.6721 13.4314 22.9307L13.4203 22.9418C13.1602 23.2003 13.159 23.6208 13.4175 23.8809C13.5473 24.0114 13.7179 24.0767 13.8885 24.0767Z" fill="white" stroke="white" stroke-width="0.5"/>
</g>
<defs>
<clipPath id="clip0_122_158">
<rect width="34" height="34" fill="white"/>
</clipPath>
</defs>
</svg>
