<svg width="34" height="34" viewBox="0 0 34 34" fill="none" xmlns="http://www.w3.org/2000/svg">
<path d="M5.66668 9.91663V29.75H25.5V32.5833H5.66668C4.10834 32.5833 2.83334 31.3083 2.83334 29.75V9.91663H5.66668ZM18.1333 21.7458L13.4583 17.0708L15.4417 15.0875L18.1333 17.7791L24.225 11.6875L26.2083 13.6708L18.1333 21.7458ZM28.3333 4.24996C29.8917 4.24996 31.1667 5.52496 31.1667 7.08329V24.0833C31.1667 25.6416 29.8917 26.9166 28.3333 26.9166H11.3333C9.77501 26.9166 8.50001 25.6416 8.50001 24.0833V7.08329C8.50001 5.52496 9.77501 4.24996 11.3333 4.24996H15.8383C16.4333 2.60663 17.9917 1.41663 19.8333 1.41663C21.675 1.41663 23.2333 2.60663 23.8283 4.24996H28.3333ZM19.8333 4.24996C19.0542 4.24996 18.4167 4.88746 18.4167 5.66663C18.4167 6.44579 19.0542 7.08329 19.8333 7.08329C20.6125 7.08329 21.25 6.44579 21.25 5.66663C21.25 4.88746 20.6125 4.24996 19.8333 4.24996ZM14.1667 9.91663V7.08329H11.3333V24.0833H28.3333V7.08329H25.5V9.91663H14.1667Z" fill="white"/>
</svg>
