<svg width="33" height="33" viewBox="0 0 33 33" fill="none" xmlns="http://www.w3.org/2000/svg">
<g clip-path="url(#clip0_122_140)">
<path d="M0 17.162V27.1638C0 30.1786 2.36297 32.6842 5.37775 32.6842H27.6222C30.637 32.6842 33 30.1786 33 27.1638V11.0102C33 7.99536 30.637 5.61199 27.6222 5.61199H24.1389C23.6908 2.14902 21.3685 0.315674 19.0463 0.315674H13.3019C11 0.315674 8.65749 2.14902 8.20931 5.61199H5.35741C2.36297 5.61199 0 7.99536 0 11.0102V17.162ZM27.6222 30.2602H5.37775C3.70737 30.2602 2.44441 28.8546 2.44441 27.1842V20.462C4.27775 22.1732 7.59811 24.1287 12.7518 24.7602C13.0166 26.3695 14.3814 27.612 16.0722 27.612H16.3981C18.0888 27.612 19.4536 26.3898 19.7184 24.7602C25.0962 24.0879 28.7018 21.9898 30.5351 20.2787V27.1842C30.5556 28.8546 29.2926 30.2602 27.6222 30.2602ZM17.3148 24.1898C17.3148 24.7194 16.8871 25.1676 16.337 25.1676H16.0519C15.5223 25.1676 15.0741 24.7398 15.0741 24.1898V20.849C15.0741 20.3194 15.5019 19.8712 16.0519 19.8712H16.337C16.8667 19.8712 17.3148 20.299 17.3148 20.849V24.1898ZM13.3018 2.76015H19.0463C20.35 2.76015 21.3277 3.98236 21.6537 5.61199H10.6945C11.0204 3.98236 11.9981 2.76015 13.3018 2.76015ZM5.37775 8.05646H27.6222C29.2926 8.05646 30.5556 9.33977 30.5556 11.0102V16.775C30.3519 17.2232 29.4148 18.1398 28.05 19.138C26.4407 20.2991 23.8334 21.725 19.7593 22.2954V20.8898C19.7593 18.9953 18.2926 17.4268 16.3981 17.4268H16.0722C14.1778 17.4268 12.6296 18.9953 12.6296 20.8898V22.3157C5.70374 21.3583 3.05555 17.7935 2.44448 16.8361V11.0102C2.44448 9.33977 3.70744 8.05646 5.37775 8.05646Z" fill="white"/>
</g>
<defs>
<clipPath id="clip0_122_140">
<rect width="33" height="33" fill="white"/>
</clipPath>
</defs>
</svg>
