<svg width="52" height="52" viewBox="0 0 52 52" fill="none" xmlns="http://www.w3.org/2000/svg">
<path d="M40.1781 43.2352C40.5945 43.2352 40.9398 42.8898 40.9398 42.4734V17.8648C40.9398 17.8547 40.9398 17.8344 40.9398 17.8242C40.9398 17.6211 40.8586 17.4281 40.7266 17.2961L33.6273 9.05937L33.6172 9.04922C33.6172 9.04922 33.6172 9.04922 33.607 9.03906C33.5867 9.00859 33.5562 8.98828 33.5359 8.96797C33.5359 8.96797 33.5359 8.96797 33.5258 8.95781C33.4953 8.9375 33.475 8.91719 33.4445 8.89687L33.4344 8.88672C33.3734 8.84609 33.3125 8.82578 33.2414 8.80547H33.2312C33.1703 8.79531 33.1094 8.78516 33.0484 8.78516H11.8219C11.4055 8.78516 11.0602 9.13047 11.0602 9.54687V42.4937C11.0602 42.9102 11.4055 43.2555 11.8219 43.2555H40.1781V43.2352ZM33.8102 11.5781L38.5226 17.0523H33.8102V11.5781ZM12.5836 10.2883H32.2867V17.8141C32.2867 18.2305 32.632 18.5758 33.0484 18.5758H39.4266V41.7016H12.5836V10.2883Z" fill="white" stroke="white" stroke-width="0.5"/>
<path d="M18.6672 26.9242C16.5242 26.9242 14.7875 28.6609 14.7875 30.8039C14.7875 31.7484 15.1227 32.6117 15.6914 33.282V38.9086C15.6914 39.1929 15.8539 39.457 16.1078 39.589C16.3617 39.7211 16.6664 39.7008 16.9 39.5281L18.6773 38.2586L20.4445 39.5281C20.5766 39.6195 20.7289 39.6703 20.8914 39.6703C21.0133 39.6703 21.125 39.6398 21.2367 39.589C21.4906 39.457 21.6531 39.1929 21.6531 38.9086V33.282C22.2117 32.6117 22.557 31.7484 22.557 30.8039C22.5469 28.6711 20.8102 26.9242 18.6672 26.9242ZM18.6672 28.4476C19.9672 28.4476 21.0234 29.5039 21.0234 30.8039C21.0234 32.1039 19.9672 33.1601 18.6672 33.1601C18.0172 33.1601 17.418 32.8961 16.9914 32.4594C16.9914 32.4594 16.9914 32.4594 16.9813 32.4492C16.5648 32.0226 16.3109 31.4437 16.3109 30.8039C16.3109 29.5039 17.3672 28.4476 18.6672 28.4476ZM19.1141 36.6945C18.85 36.5015 18.4945 36.5015 18.2203 36.6945L17.2047 37.4258V34.3992C17.6516 34.582 18.1492 34.6836 18.657 34.6836C19.175 34.6836 19.6625 34.582 20.1094 34.3992V37.4258L19.1141 36.6945Z" fill="white" stroke="white" stroke-width="0.5"/>
<path d="M15.8336 14.8789H18.6672C19.0836 14.8789 19.4289 14.5336 19.4289 14.1172C19.4289 13.7008 19.0836 13.3555 18.6672 13.3555H15.8336C15.4172 13.3555 15.0719 13.7008 15.0719 14.1172C15.0719 14.5336 15.4172 14.8789 15.8336 14.8789Z" fill="white" stroke="white" stroke-width="0.5"/>
<path d="M26.782 16.6055H15.8336C15.4172 16.6055 15.0719 16.9508 15.0719 17.3672C15.0719 17.7836 15.4172 18.1289 15.8336 18.1289H26.782C27.1984 18.1289 27.5437 17.7836 27.5437 17.3672C27.5437 16.9508 27.1984 16.6055 26.782 16.6055Z" fill="white" stroke="white" stroke-width="0.5"/>
<path d="M26.782 19.8656H15.8336C15.4172 19.8656 15.0719 20.2109 15.0719 20.6273C15.0719 21.0437 15.4172 21.389 15.8336 21.389H26.782C27.1984 21.389 27.5437 21.0437 27.5437 20.6273C27.5437 20.2109 27.1984 19.8656 26.782 19.8656Z" fill="white" stroke="white" stroke-width="0.5"/>
</svg>
