<svg width="24" height="24" viewBox="0 0 24 24" fill="none" xmlns="http://www.w3.org/2000/svg">
<path d="M4.46881 0.414917C2.25967 0.414917 0.468811 2.20578 0.468811 4.41492V19.0538C0.468811 21.263 2.25967 23.0538 4.46881 23.0538H19.1077C21.3169 23.0538 23.1077 21.263 23.1077 19.0538V4.41492C23.1077 2.20578 21.3169 0.414917 19.1077 0.414917H4.46881ZM19.3346 2.93035C20.0288 2.93035 20.5923 3.49381 20.5923 4.18807C20.5923 4.88233 20.0288 5.44579 19.3346 5.44579C18.6403 5.44579 18.0769 4.88233 18.0769 4.18807C18.0769 3.49381 18.6403 2.93035 19.3346 2.93035ZM11.7883 5.44579C15.2608 5.44579 18.0769 8.26182 18.0769 11.7344C18.0769 15.2069 15.2608 18.023 11.7883 18.023C8.31571 18.023 5.49968 15.2069 5.49968 11.7344C5.49968 8.26182 8.31571 5.44579 11.7883 5.44579ZM11.7883 7.96122C10.7876 7.96122 9.82785 8.35875 9.12025 9.06635C8.41264 9.77396 8.01512 10.7337 8.01512 11.7344C8.01512 12.7351 8.41264 13.6948 9.12025 14.4024C9.82785 15.11 10.7876 15.5075 11.7883 15.5075C12.789 15.5075 13.7487 15.11 14.4563 14.4024C15.1639 13.6948 15.5614 12.7351 15.5614 11.7344C15.5614 10.7337 15.1639 9.77396 14.4563 9.06635C13.7487 8.35875 12.789 7.96122 11.7883 7.96122Z" fill="#A4C2FE"/>
</svg>
