<svg width="25" height="24" viewBox="0 0 25 24" fill="none" xmlns="http://www.w3.org/2000/svg">
<path fill-rule="evenodd" clip-rule="evenodd" d="M20.5274 0.414917H4.21078C3.24695 0.415015 2.32262 0.797939 1.64109 1.47947C0.95956 2.161 0.576636 3.08533 0.576538 4.04916V20.3657C0.576636 21.3296 0.95956 22.2539 1.64109 22.9354C2.32262 23.617 3.24695 23.9999 4.21078 24H20.5274C21.4912 23.9999 22.4155 23.617 23.0971 22.9354C23.7786 22.2539 24.1615 21.3296 24.1616 20.3657V4.04916C24.1615 3.08533 23.7786 2.161 23.0971 1.47947C22.4155 0.797939 21.4912 0.415015 20.5274 0.414917ZM13.1359 16.6789H12.1714C12.1714 16.6789 10.0428 16.8052 8.16784 14.8821C6.12171 12.7853 4.31771 8.62595 4.31771 8.62595C4.31771 8.62595 4.21346 8.3532 4.32695 8.22101C4.45412 8.0728 4.80013 8.06333 4.80013 8.06333L7.10652 8.0484C7.23962 8.07249 7.36638 8.12291 7.47914 8.19661C7.60742 8.28947 7.67914 8.46281 7.67914 8.46281C7.92887 9.06955 8.21793 9.65985 8.54454 10.2301C9.50753 11.8709 9.95668 12.2285 10.2838 12.053C10.7596 11.7966 10.6165 9.73444 10.6165 9.73444C10.6165 9.73444 10.6254 8.9861 10.3766 8.65253C10.184 8.39471 9.82065 8.31897 9.66021 8.29785C9.53045 8.2811 9.74338 7.98431 10.0195 7.85103C10.4347 7.65075 11.1674 7.63946 12.0335 7.6482C12.7082 7.6533 12.9026 7.69481 13.1662 7.75744C13.7784 7.90323 13.7593 8.36956 13.7181 9.37595C13.7058 9.67673 13.6915 10.0258 13.6915 10.4289C13.6915 10.5197 13.6888 10.6164 13.686 10.716C13.6717 11.2314 13.6553 11.8215 13.9998 12.0406C14.1765 12.1532 14.6086 12.0574 15.6896 10.2497C16.2016 9.39286 16.5856 8.38561 16.5856 8.38561C16.5856 8.38561 16.667 8.20936 16.8 8.1307C16.9331 8.05204 17.1132 8.07608 17.1132 8.07608L19.5404 8.06151C19.5404 8.06151 20.2694 7.97557 20.3877 8.30003C20.5116 8.64052 20.1153 9.4351 19.1234 10.737C18.1826 11.9723 17.725 12.4269 17.7672 12.8291C17.798 13.1229 18.0955 13.3887 18.6662 13.9102C19.868 15.0094 20.1831 15.582 20.2561 15.7148C20.2616 15.7247 20.2657 15.7321 20.2687 15.7372C20.8051 16.6104 19.6772 16.6789 19.6772 16.6789L17.5216 16.7084C17.5216 16.7084 17.0592 16.7987 16.4496 16.3864C16.131 16.1709 15.8193 15.819 15.5223 15.4837C15.0682 14.9709 14.6483 14.4969 14.2907 14.609C13.69 14.7973 13.7089 16.0718 13.7089 16.0718C13.7089 16.0718 13.7133 16.3438 13.5765 16.4895C13.4275 16.6472 13.1359 16.6789 13.1359 16.6789Z" fill="#A4C2FE"/>
</svg>
