<svg width="17" height="17" viewBox="0 0 17 17" fill="none" xmlns="http://www.w3.org/2000/svg">
<path fill-rule="evenodd" clip-rule="evenodd" d="M8.49993 9.39341C7.42297 9.39341 6.54993 8.52036 6.54993 7.44341C6.54993 6.36645 7.42297 5.49341 8.49993 5.49341C9.57688 5.49341 10.4499 6.36645 10.4499 7.44341C10.4499 8.52036 9.57688 9.39341 8.49993 9.39341Z" stroke="#A4C2FE" stroke-width="1.5"/>
<path d="M13.7376 6.3125C14.4563 9.4875 12.4813 12.175 10.7501 13.8375C9.49381 15.05 7.50631 15.05 6.24381 13.8375C4.51881 12.175 2.54381 9.48125 3.26256 6.30625C4.49381 0.893752 12.5126 0.900002 13.7376 6.3125Z" stroke="#A4C2FE" stroke-width="1.5"/>
<path opacity="0.01" fill-rule="evenodd" clip-rule="evenodd" d="M1 16L1 1L16 1L16 16L1 16Z" stroke="#A4C2FE" stroke-width="1.5"/>
</svg>
