<svg width="182" height="56" viewBox="0 0 182 56" fill="none" xmlns="http://www.w3.org/2000/svg">
<path d="M74.3297 23.9H68.2497L67.1297 27H65.2097L70.2497 13.14H72.3497L77.3697 27H75.4497L74.3297 23.9ZM73.8097 22.42L71.2897 15.38L68.7697 22.42H73.8097ZM83.9863 27.14C83.0663 27.14 82.2396 26.98 81.5063 26.66C80.7863 26.3267 80.2196 25.8733 79.8063 25.3C79.393 24.7133 79.1796 24.04 79.1663 23.28H81.1063C81.173 23.9333 81.4396 24.4867 81.9063 24.94C82.3863 25.38 83.0796 25.6 83.9863 25.6C84.853 25.6 85.533 25.3867 86.0263 24.96C86.533 24.52 86.7863 23.96 86.7863 23.28C86.7863 22.7467 86.6396 22.3133 86.3463 21.98C86.053 21.6467 85.6863 21.3933 85.2463 21.22C84.8063 21.0467 84.213 20.86 83.4663 20.66C82.5463 20.42 81.8063 20.18 81.2463 19.94C80.6996 19.7 80.2263 19.3267 79.8263 18.82C79.4396 18.3 79.2463 17.6067 79.2463 16.74C79.2463 15.98 79.4396 15.3067 79.8263 14.72C80.213 14.1333 80.753 13.68 81.4463 13.36C82.153 13.04 82.9596 12.88 83.8663 12.88C85.173 12.88 86.2396 13.2067 87.0663 13.86C87.9063 14.5133 88.3796 15.38 88.4863 16.46H86.4863C86.4196 15.9267 86.1396 15.46 85.6463 15.06C85.153 14.6467 84.4996 14.44 83.6863 14.44C82.9263 14.44 82.3063 14.64 81.8263 15.04C81.3463 15.4267 81.1063 15.9733 81.1063 16.68C81.1063 17.1867 81.2463 17.6 81.5263 17.92C81.8196 18.24 82.173 18.4867 82.5863 18.66C83.013 18.82 83.6063 19.0067 84.3663 19.22C85.2863 19.4733 86.0263 19.7267 86.5863 19.98C87.1463 20.22 87.6263 20.6 88.0263 21.12C88.4263 21.6267 88.6263 22.32 88.6263 23.2C88.6263 23.88 88.4463 24.52 88.0863 25.12C87.7263 25.72 87.193 26.2067 86.4863 26.58C85.7796 26.9533 84.9463 27.14 83.9863 27.14ZM105.445 13.16V27H103.625V16.68L99.0246 27H97.7446L93.1246 16.66V27H91.3046V13.16H93.2646L98.3846 24.6L103.505 13.16H105.445ZM121.203 27L117.883 21.3H115.683V27H113.863V13.06H118.363C119.417 13.06 120.303 13.24 121.023 13.6C121.757 13.96 122.303 14.4467 122.663 15.06C123.023 15.6733 123.203 16.3733 123.203 17.16C123.203 18.12 122.923 18.9667 122.363 19.7C121.817 20.4333 120.99 20.92 119.883 21.16L123.383 27H121.203ZM115.683 19.84H118.363C119.35 19.84 120.09 19.6 120.583 19.12C121.077 18.6267 121.323 17.9733 121.323 17.16C121.323 16.3333 121.077 15.6933 120.583 15.24C120.103 14.7867 119.363 14.56 118.363 14.56H115.683V19.84ZM127.851 13.06V27H126.031V13.06H127.851ZM141.513 17.1C141.126 16.2867 140.566 15.66 139.833 15.22C139.1 14.7667 138.246 14.54 137.273 14.54C136.3 14.54 135.42 14.7667 134.633 15.22C133.86 15.66 133.246 16.3 132.793 17.14C132.353 17.9667 132.133 18.9267 132.133 20.02C132.133 21.1133 132.353 22.0733 132.793 22.9C133.246 23.7267 133.86 24.3667 134.633 24.82C135.42 25.26 136.3 25.48 137.273 25.48C138.633 25.48 139.753 25.0733 140.633 24.26C141.513 23.4467 142.026 22.3467 142.173 20.96H136.613V19.48H144.113V20.88C144.006 22.0267 143.646 23.08 143.033 24.04C142.42 24.9867 141.613 25.74 140.613 26.3C139.613 26.8467 138.5 27.12 137.273 27.12C135.98 27.12 134.8 26.82 133.733 26.22C132.666 25.6067 131.82 24.76 131.193 23.68C130.58 22.6 130.273 21.38 130.273 20.02C130.273 18.66 130.58 17.44 131.193 16.36C131.82 15.2667 132.666 14.42 133.733 13.82C134.8 13.2067 135.98 12.9 137.273 12.9C138.753 12.9 140.06 13.2667 141.193 14C142.34 14.7333 143.173 15.7667 143.693 17.1H141.513ZM157.259 13.06V27H155.439V20.68H148.339V27H146.519V13.06H148.339V19.18H155.439V13.06H157.259ZM168.947 13.06V14.54H165.147V27H163.327V14.54H159.507V13.06H168.947ZM175.607 27.14C174.687 27.14 173.861 26.98 173.127 26.66C172.407 26.3267 171.841 25.8733 171.427 25.3C171.014 24.7133 170.801 24.04 170.787 23.28H172.727C172.794 23.9333 173.061 24.4867 173.527 24.94C174.007 25.38 174.701 25.6 175.607 25.6C176.474 25.6 177.154 25.3867 177.647 24.96C178.154 24.52 178.407 23.96 178.407 23.28C178.407 22.7467 178.261 22.3133 177.967 21.98C177.674 21.6467 177.307 21.3933 176.867 21.22C176.427 21.0467 175.834 20.86 175.087 20.66C174.167 20.42 173.427 20.18 172.867 19.94C172.321 19.7 171.847 19.3267 171.447 18.82C171.061 18.3 170.867 17.6067 170.867 16.74C170.867 15.98 171.061 15.3067 171.447 14.72C171.834 14.1333 172.374 13.68 173.067 13.36C173.774 13.04 174.581 12.88 175.487 12.88C176.794 12.88 177.861 13.2067 178.687 13.86C179.527 14.5133 180.001 15.38 180.107 16.46H178.107C178.041 15.9267 177.761 15.46 177.267 15.06C176.774 14.6467 176.121 14.44 175.307 14.44C174.547 14.44 173.927 14.64 173.447 15.04C172.967 15.4267 172.727 15.9733 172.727 16.68C172.727 17.1867 172.867 17.6 173.147 17.92C173.441 18.24 173.794 18.4867 174.207 18.66C174.634 18.82 175.227 19.0067 175.987 19.22C176.907 19.4733 177.647 19.7267 178.207 19.98C178.767 20.22 179.247 20.6 179.647 21.12C180.047 21.6267 180.247 22.32 180.247 23.2C180.247 23.88 180.067 24.52 179.707 25.12C179.347 25.72 178.814 26.2067 178.107 26.58C177.401 26.9533 176.567 27.14 175.607 27.14Z" fill="black"/>
<path d="M86.4224 46.969H85.0653V42.0157H79.0942V46.969H77.7371V36.0898H79.0942V40.7943H85.0653V36.0898H86.4224V46.969ZM89.4607 37.4242C90.3604 36.414 91.5818 35.9088 93.1248 35.9088C94.6679 35.9088 95.8892 36.414 96.7889 37.4242C97.6886 38.4345 98.1385 39.8041 98.1385 41.5332C98.1385 43.2622 97.6886 44.6318 96.7889 45.6421C95.8892 46.6473 94.6679 47.15 93.1248 47.15C91.5818 47.15 90.3604 46.6473 89.4607 45.6421C88.561 44.6318 88.1112 43.2622 88.1112 41.5332C88.1112 39.8041 88.561 38.4345 89.4607 37.4242ZM95.7636 38.344C95.1152 37.5549 94.2356 37.1604 93.1248 37.1604C92.014 37.1604 91.1319 37.5549 90.4785 38.344C89.8302 39.1281 89.506 40.1912 89.506 41.5332C89.506 42.8701 89.8302 43.9332 90.4785 44.7223C91.1319 45.5064 92.014 45.8984 93.1248 45.8984C94.2356 45.8984 95.1152 45.5064 95.7636 44.7223C96.417 43.9332 96.7437 42.8701 96.7437 41.5332C96.7437 40.1912 96.417 39.1281 95.7636 38.344ZM106.432 45.7476V46.969H99.8273V36.0898H101.184V45.7476H106.432ZM107.925 36.0898H111.581C113.194 36.0898 114.454 36.5698 115.358 37.5298C116.263 38.4848 116.715 39.8167 116.715 41.5256C116.715 43.2396 116.263 44.5765 115.358 45.5365C114.459 46.4915 113.2 46.969 111.581 46.969H107.925V36.0898ZM109.282 37.3111V45.7476H111.491C112.722 45.7476 113.669 45.3858 114.333 44.662C114.996 43.9332 115.328 42.8928 115.328 41.5407C115.328 40.1786 114.996 39.1331 114.333 38.4043C113.675 37.6755 112.727 37.3111 111.491 37.3111H109.282ZM125.144 45.7476V46.969H118.404V36.0898H125.144V37.3111H119.761V40.8018H124.865V42.0081H119.761V45.7476H125.144ZM128.296 37.2961V41.4653H130.897C131.595 41.4653 132.133 41.2844 132.51 40.9225C132.892 40.5606 133.083 40.0454 133.083 39.3769C133.083 38.7235 132.885 38.2133 132.488 37.8464C132.091 37.4795 131.54 37.2961 130.837 37.2961H128.296ZM128.296 42.6641V46.969H126.939V36.0898H131.017C132.068 36.0898 132.907 36.3863 133.536 36.9794C134.169 37.5675 134.486 38.3516 134.486 39.3317C134.486 40.0906 134.292 40.7466 133.905 41.2994C133.518 41.8523 132.983 42.2368 132.299 42.453L134.817 46.969H133.226L130.897 42.6641H128.296Z" fill="#7C92BC"/>
<circle cx="27.5724" cy="27.5724" r="27.5724" fill="url(#paint0_linear_53_529)"/>
<g clip-path="url(#clip0_53_529)">
<path d="M44.1564 23.1259C43.91 22.8775 43.8573 22.5033 43.9453 22.1647C44.0502 21.7613 44.072 21.3382 44.0069 20.9221C43.9114 20.3126 43.6339 19.747 43.2113 19.3006C42.9229 19.0113 42.5767 18.7874 42.1956 18.6438C41.8145 18.5001 41.4075 18.4401 41.0016 18.4677C40.463 18.4996 39.8955 18.1292 39.8955 17.5897V14.5252C39.8955 13.0039 38.6622 11.7707 37.1409 11.7707H26.5989C19.2553 11.7707 13.3022 17.7238 13.3022 25.0673V29.11C13.3022 36.4535 19.2553 42.4066 26.5989 42.4066H28.924C34.9834 42.4066 39.8955 37.4945 39.8955 31.4352V28.1247C39.8955 27.3502 40.2016 26.6071 40.7471 26.0574L42.5801 24.21C42.7183 24.0708 42.9433 24.0708 43.0814 24.21C43.1142 24.243 43.1402 24.2822 43.1579 24.3253C43.1756 24.3684 43.1847 24.4146 43.1847 24.4613C43.1847 24.5079 43.1756 24.5541 43.1579 24.5973C43.1402 24.6404 43.1142 24.6795 43.0814 24.7125L40.8457 26.9662C40.7032 27.1099 40.6231 27.3048 40.6231 27.508C40.6231 27.7112 40.7032 27.9061 40.8457 28.0497C40.9883 28.1934 41.1816 28.2742 41.3832 28.2742C41.5848 28.2742 41.7781 28.1934 41.9207 28.0497L44.1564 25.7961C44.5071 25.4417 44.7041 24.9616 44.7041 24.461C44.7041 23.9604 44.5071 23.4803 44.1564 23.1259ZM19.0008 18.4723C19.0008 18.0493 19.3437 17.7064 19.7667 17.7064H33.4325C33.8555 17.7064 34.1984 18.0493 34.1984 18.4723C34.1984 18.8953 33.8555 19.2382 33.4325 19.2382H19.7667C19.3437 19.2382 19.0008 18.8953 19.0008 18.4723ZM19.0008 22.3018C19.0008 21.8788 19.3437 21.5359 19.7667 21.5359H33.4325C33.8555 21.5359 34.1984 21.8788 34.1984 22.3018C34.1984 22.7248 33.8555 23.0677 33.4325 23.0677H19.7667C19.3437 23.0677 19.0008 22.7248 19.0008 22.3018ZM19.0008 26.1313C19.0008 25.7083 19.3437 25.3654 19.7667 25.3654H28.2074C28.6304 25.3654 28.9733 25.7083 28.9733 26.1313C28.9733 26.5543 28.6304 26.8972 28.2074 26.8972H19.7667C19.3437 26.8972 19.0008 26.5543 19.0008 26.1313ZM33.0491 38.4776H25.638C24.7806 38.4776 23.9796 38.3957 23.5535 37.689C23.118 36.9662 23.5511 36.1258 23.8674 35.5115C23.923 35.4035 23.7988 35.2698 23.6564 35.4175C23.2395 35.8504 22.5737 36.6301 22.0388 37.2565C21.474 37.918 21.2495 38.1779 21.1303 38.2873C21.0038 38.4356 20.8318 38.5372 20.6415 38.5759C20.4513 38.6147 20.2537 38.5885 20.0799 38.5014C19.9238 38.4106 19.8014 38.2708 19.7316 38.1033C19.6618 37.9358 19.6483 37.7498 19.6932 37.5739C19.83 36.7529 18.6991 36.2813 18.2763 36.9983C17.8469 37.7265 17.5344 38.2542 17.4941 38.3224C17.4493 38.3979 17.3902 38.4639 17.3202 38.5164C17.2502 38.569 17.1705 38.6071 17.0859 38.6286C17.0012 38.6502 16.9131 38.6547 16.8268 38.6419C16.7404 38.6292 16.6573 38.5994 16.5823 38.5542C16.5074 38.5091 16.4419 38.4496 16.3898 38.3789C16.3377 38.3083 16.2998 38.2281 16.2785 38.1427C16.2353 37.9704 16.2619 37.7878 16.3523 37.6352C16.3853 37.58 19.6333 32.0938 20.0429 31.2973C20.1763 30.979 20.4245 30.7236 20.7375 30.5827C21.0505 30.4418 21.4049 30.4259 21.7291 30.5382C22.0217 30.6581 22.2583 30.8853 22.3914 31.174C22.5245 31.4628 22.5442 31.7916 22.4464 32.0944C22.275 32.7608 22.1021 33.4356 21.9383 34.0766C21.826 34.5161 22.388 34.8097 22.7029 34.4831C22.955 34.1775 23.2996 33.9636 23.6838 33.8742C24.0681 33.7848 24.4708 33.8248 24.8303 33.988C25.054 34.1028 25.233 34.2897 25.339 34.5189C25.445 34.7482 25.4718 35.0066 25.4151 35.253C25.3246 35.5577 25.2012 35.8515 25.0473 36.1291C24.7935 36.6604 24.9133 37.1365 25.6377 37.1365H33.0489C33.2252 37.1365 33.3943 37.2071 33.519 37.3328C33.6437 37.4584 33.7137 37.6289 33.7137 37.8066C33.7137 37.9844 33.6437 38.1548 33.519 38.2805C33.3943 38.4062 33.2255 38.4776 33.0491 38.4776ZM32.4125 32.2919C31.5354 33.1761 30.4388 33.811 29.2353 34.1316L28.6004 34.3007C28.5643 34.3111 28.5261 34.3115 28.4898 34.3017C28.4535 34.2919 28.4206 34.2723 28.3945 34.2451C28.3673 34.2191 28.3478 34.1861 28.3379 34.1497C28.3281 34.1132 28.3284 34.0748 28.3388 34.0385L28.5038 33.3871C28.8084 32.1845 29.4299 31.0857 30.3036 30.205L34.1749 26.3026C34.7551 25.7177 35.7008 25.7177 36.2811 26.3026C36.8548 26.8809 36.8548 27.8137 36.2811 28.392L32.4125 32.2919ZM41.9629 22.6645L39.4456 25.2021C38.8653 25.7869 37.9196 25.7869 37.3394 25.2021C36.7657 24.6237 36.7657 23.691 37.3394 23.1127L39.8733 20.5586C40.1928 20.2272 40.6229 20.0272 41.0804 19.9972C41.1089 19.9957 41.1364 19.9948 41.1647 19.9948C41.3442 19.9913 41.5225 20.024 41.6894 20.0907C41.8562 20.1575 42.0081 20.2571 42.1363 20.3838C42.4107 20.7106 42.5463 21.1331 42.5139 21.56C42.4814 21.9869 42.2835 22.3837 41.9629 22.6645Z" fill="white"/>
</g>
<defs>
<linearGradient id="paint0_linear_53_529" x1="58.821" y1="55.1447" x2="7.73961" y2="5.32098" gradientUnits="userSpaceOnUse">
<stop stop-color="#203749"/>
<stop offset="1" stop-color="#A4C2FE"/>
</linearGradient>
<clipPath id="clip0_53_529">
<rect width="36.7631" height="36.7631" fill="white" transform="translate(8.70697 8.70705)"/>
</clipPath>
</defs>
</svg>
